<svg width="140" height="140" viewBox="0 0 140 140" fill="none" xmlns="http://www.w3.org/2000/svg">
<path d="M115.161 126.452H107.89L107.369 124.37L107.375 124.358L107.364 124.352L83.4806 28.8084C83.2277 27.8013 82.3267 27.0968 81.2902 27.0968H77.7767C78.5535 25.7623 79.0322 24.2335 79.0322 22.5806C79.0322 18.3829 76.1441 14.8784 72.258 13.869V0H67.7419V13.869C63.8557 14.8784 60.9677 18.3829 60.9677 22.5806C60.9677 24.2335 61.4464 25.7623 62.2231 27.0968H58.7096C57.6731 27.0968 56.7722 27.8013 56.5193 28.8084L32.1096 126.452H24.8386C23.5899 126.452 22.5806 127.461 22.5806 128.71V137.742C22.5806 138.991 23.5899 140 24.8386 140H115.161C116.41 140 117.419 138.991 117.419 137.742V128.71C117.419 127.461 116.41 126.452 115.161 126.452ZM91.6457 81.2903H48.3541L69.9999 59.6445L91.6457 81.2903ZM73.1928 56.4516L83.2277 46.4168L89.9183 73.1771L73.1928 56.4516ZM90.7673 85.8064L70.0609 99.61L49.246 85.8064H90.7673ZM50.0815 73.1771L56.7722 46.4168L66.807 56.4516L50.0815 73.1771ZM65.9873 102.326L38.1544 120.881L46.0915 89.1326L65.9873 102.326ZM70.0677 105.034L102.365 126.452H37.9422L70.0677 105.034ZM74.1412 102.317L93.9083 89.1394L101.787 120.651L74.1412 102.317ZM65.4838 22.5806C65.4838 20.09 67.5093 18.0645 69.9999 18.0645C72.4906 18.0645 74.516 20.09 74.516 22.5806C74.516 25.0713 72.4906 27.0968 69.9999 27.0968C67.5093 27.0968 65.4838 25.0713 65.4838 22.5806ZM60.4731 31.6129H79.5267L81.9496 41.309L69.9999 53.2587L58.0502 41.309L60.4731 31.6129ZM112.903 135.484H27.0967V130.968H112.903V135.484Z" fill="#3082B9"/>
<path d="M103.871 0V4.51613C121.303 4.51613 135.484 18.6968 135.484 36.129H140C140 16.2084 123.791 0 103.871 0Z" fill="#3082B9"/>
<path d="M103.871 11.2905V15.8067C115.078 15.8067 124.193 24.9225 124.193 36.1292H128.71C128.71 22.4341 117.566 11.2905 103.871 11.2905Z" fill="#3082B9"/>
<path d="M103.871 22.5806V27.0967C108.852 27.0967 112.903 31.1477 112.903 36.129H117.419C117.419 28.657 111.343 22.5806 103.871 22.5806Z" fill="#3082B9"/>
<path d="M36.129 4.51613V0C16.2084 0 0 16.2084 0 36.129H4.51613C4.51613 18.6968 18.6968 4.51613 36.129 4.51613Z" fill="#3082B9"/>
<path d="M36.129 11.2905C22.4338 11.2905 11.2903 22.4341 11.2903 36.1292H15.8064C15.8064 24.9225 24.9222 15.8067 36.129 15.8067V11.2905Z" fill="#3082B9"/>
<path d="M27.0967 36.129C27.0967 31.1477 31.1477 27.0967 36.129 27.0967V22.5806C28.657 22.5806 22.5806 28.657 22.5806 36.129H27.0967Z" fill="#3082B9"/>
</svg>
