<svg width="58" height="58" viewBox="0 0 58 58" fill="none" xmlns="http://www.w3.org/2000/svg">
<path d="M55.1 0H39.6333C38.0318 0 36.7333 1.29849 36.7333 2.9V21.2667H6.76667C4.09842 21.27 1.93664 23.4318 1.93333 26.1V50.2667H0.966667C0.432829 50.2667 0 50.6995 0 51.2333V55.1C0 56.7015 1.29849 58 2.9 58H45.4333C47.0348 58 48.3333 56.7015 48.3333 55.1V51.2333C48.3333 50.6995 47.9005 50.2667 47.3667 50.2667H46.4V46.4H48.3333C49.9348 46.4 51.2333 45.1015 51.2333 43.5V40.0336L52.4832 41.2835L53.8501 39.9165L50.9501 37.0165C50.5725 36.6394 49.9608 36.6394 49.5832 37.0165L46.6832 39.9165L48.0501 41.2835L49.3 40.0336V43.5C49.3 44.0338 48.8672 44.4667 48.3333 44.4667H46.4V34.8H55.1C56.7015 34.8 58 33.5015 58 31.9V2.9C58 1.29849 56.7015 0 55.1 0ZM39.6333 1.93333H55.1C55.6338 1.93333 56.0667 2.36616 56.0667 2.9V3.86667H38.6667V2.9C38.6667 2.36616 39.0995 1.93333 39.6333 1.93333ZM56.0667 5.8V27.0667H38.6667V5.8H56.0667ZM46.4 55.1C46.4 55.6338 45.9672 56.0667 45.4333 56.0667H2.9C2.36616 56.0667 1.93333 55.6338 1.93333 55.1V52.2H19.3333V54.1333C19.3333 54.6672 19.7662 55.1 20.3 55.1H28.0333C28.5672 55.1 29 54.6672 29 54.1333V52.2H46.4V55.1ZM21.2667 52.2H27.0667V53.1667H21.2667V52.2ZM44.4667 44.4667H24.1667V46.4H44.4667V50.2667H3.86667V26.1C3.86667 24.4985 5.16515 23.2 6.76667 23.2H36.7333V31.9C36.7333 33.5015 38.0318 34.8 39.6333 34.8H44.4667V44.4667ZM55.1 32.8667H39.6333C39.0995 32.8667 38.6667 32.4338 38.6667 31.9V29H56.0667V31.9C56.0667 32.4338 55.6338 32.8667 55.1 32.8667Z" fill="#3082B9"/>
<path d="M24.1667 19.3333C24.423 19.3333 24.6689 19.2313 24.8502 19.0501L27.7502 16.1501L26.3833 14.7832L25.1334 16.033V13.5333C25.1334 12.9995 25.5662 12.5666 26.1 12.5666H34.8001V10.6333H26.1C24.4985 10.6333 23.2 11.9318 23.2 13.5333V16.033L21.9502 14.7832L20.5833 16.1501L23.4833 19.0501C23.6645 19.2313 23.9104 19.3333 24.1667 19.3333Z" fill="#3082B9"/>
<path d="M28.7168 25.4165C28.5356 25.2353 28.2896 25.1333 28.0334 25.1333H18.3667C17.299 25.1333 16.4333 25.999 16.4333 27.0666V40.6C16.4333 41.6676 17.299 42.5333 18.3667 42.5333H29.9667C31.0344 42.5333 31.9 41.6676 31.9 40.6V29C31.9 28.7437 31.7981 28.4978 31.6168 28.3165L28.7168 25.4165ZM29.5664 29H28.0334V27.4669L29.5664 29ZM18.3667 40.6V27.0666H26.1V29.9666C26.1 30.5005 26.5328 30.9333 27.0667 30.9333H29.9667V40.6H18.3667Z" fill="#3082B9"/>
</svg>
