<svg width="192" height="61" viewBox="0 0 192 61" fill="none" xmlns="http://www.w3.org/2000/svg">
<path d="M63.7878 31.0371C63.4869 32.0851 62.9282 32.871 62.1115 33.395C61.2949 33.9085 60.301 34.1653 59.1298 34.1653C58.0553 34.1653 57.1258 33.9557 56.3415 33.5365C55.5571 33.1068 54.9554 32.4938 54.5363 31.6973C54.1172 30.8904 53.9077 29.9315 53.9077 28.8207C53.9077 27.7203 54.1172 26.7667 54.5363 25.9597C54.9554 25.1528 55.5571 24.5398 56.3415 24.1206C57.1258 23.6909 58.0499 23.4761 59.1137 23.4761C60.2741 23.4761 61.2573 23.7171 62.0632 24.1992C62.8691 24.6707 63.4009 25.3834 63.6588 26.337L61.2251 27.2959C61.0746 26.6671 60.8436 26.227 60.532 25.9755C60.2204 25.724 59.7799 25.5982 59.2104 25.5982C58.426 25.5982 57.8189 25.8759 57.3891 26.4313C56.9593 26.9763 56.7444 27.7727 56.7444 28.8207C56.7444 29.8686 56.9486 30.6703 57.3569 31.2257C57.7759 31.7707 58.3776 32.0432 59.162 32.0432C59.753 32.0432 60.2204 31.9069 60.5643 31.6345C60.9081 31.362 61.1445 30.9323 61.2734 30.3455L63.7878 31.0371Z" fill="#1976D2"/>
<path d="M69.0044 25.9912C70.3476 25.9912 71.3898 26.3527 72.1312 27.0758C72.8834 27.7884 73.2595 28.7892 73.2595 30.0782C73.2595 31.3672 72.8834 32.3733 72.1312 33.0964C71.3898 33.809 70.3476 34.1653 69.0044 34.1653C67.6613 34.1653 66.6137 33.809 65.8615 33.0964C65.1201 32.3733 64.7494 31.3672 64.7494 30.0782C64.7494 28.7892 65.1201 27.7884 65.8615 27.0758C66.6137 26.3527 67.6613 25.9912 69.0044 25.9912ZM69.0044 27.8932C68.4887 27.8932 68.1072 28.0661 67.8601 28.412C67.613 28.7578 67.4894 29.3132 67.4894 30.0782C67.4894 30.8432 67.613 31.3987 67.8601 31.7445C68.1072 32.0903 68.4887 32.2632 69.0044 32.2632C69.5202 32.2632 69.9016 32.0903 70.1488 31.7445C70.3959 31.3987 70.5195 30.8432 70.5195 30.0782C70.5195 29.3132 70.3959 28.7578 70.1488 28.412C69.9016 28.0661 69.5202 27.8932 69.0044 27.8932Z" fill="#1976D2"/>
<path d="M85.3244 25.9912C86.1411 25.9912 86.8019 26.2322 87.3069 26.7143C87.8227 27.1963 88.0805 27.8828 88.0805 28.7735V34.0081H85.3406V29.3866C85.3406 28.4853 84.9752 28.0347 84.2446 28.0347C83.8148 28.0347 83.4709 28.1867 83.213 28.4906C82.9552 28.7945 82.8262 29.2346 82.8262 29.811V34.0081H80.0862V29.3866C80.0862 28.4853 79.7209 28.0347 78.9903 28.0347C78.5819 28.0347 78.2435 28.1867 77.9748 28.4906C77.7062 28.7945 77.5719 29.2503 77.5719 29.8582V34.0081H74.8319V26.1484H77.2818L77.3624 27.6574C77.6203 27.1125 77.9802 26.6986 78.4423 26.4156C78.9043 26.1327 79.4469 25.9912 80.0701 25.9912C80.6826 25.9912 81.2091 26.1274 81.6496 26.3999C82.1009 26.6724 82.4233 27.0653 82.6167 27.5788C82.8746 27.0653 83.2399 26.6724 83.7127 26.3999C84.1962 26.1274 84.7335 25.9912 85.3244 25.9912Z" fill="#1976D2"/>
<path d="M95.1788 25.9912C96.2318 25.9912 97.0484 26.3475 97.6287 27.0601C98.2089 27.7727 98.499 28.7683 98.499 30.0468C98.499 31.3463 98.2035 32.3575 97.6126 33.0806C97.0216 33.8037 96.2103 34.1653 95.1788 34.1653C94.6093 34.1653 94.1151 34.0343 93.696 33.7723C93.2877 33.5103 92.9707 33.1488 92.7451 32.6877V37.3092H90.0051V26.1484H92.4066L92.4872 27.8146C92.7128 27.2592 93.0567 26.8191 93.5187 26.4942C93.9915 26.1589 94.5449 25.9912 95.1788 25.9912ZM94.2279 32.2004C94.7114 32.2004 95.0821 32.0274 95.34 31.6816C95.6086 31.3358 95.7429 30.8013 95.7429 30.0782C95.7429 29.3551 95.6086 28.8207 95.34 28.4748C95.0821 28.129 94.7114 27.9561 94.2279 27.9561C93.7658 27.9561 93.4005 28.129 93.1319 28.4748C92.874 28.8207 92.7451 29.3289 92.7451 29.9996V30.1568C92.7451 30.8066 92.874 31.3096 93.1319 31.6659C93.3898 32.0222 93.7551 32.2004 94.2279 32.2004Z" fill="#1976D2"/>
<path d="M107.832 32.4833C108.036 32.4833 108.203 32.4623 108.331 32.4204L108.122 33.9138C107.81 34.0814 107.445 34.1653 107.026 34.1653C105.865 34.1653 105.172 33.7618 104.947 32.9549C104.463 33.7618 103.507 34.1653 102.078 34.1653C101.272 34.1653 100.654 33.9976 100.224 33.6623C99.7946 33.3269 99.5797 32.8396 99.5797 32.2004C99.5797 31.5297 99.8214 30.99 100.305 30.5813C100.799 30.1621 101.605 29.8424 102.723 29.6224L104.544 29.2765V28.9936C104.544 28.6373 104.442 28.3543 104.238 28.1447C104.033 27.9351 103.754 27.8304 103.4 27.8304C102.991 27.8304 102.658 27.9247 102.4 28.1133C102.142 28.3019 101.976 28.6111 101.901 29.0407L99.6764 28.412C99.816 27.647 100.203 27.0549 100.837 26.6357C101.471 26.206 102.325 25.9912 103.4 25.9912C104.657 25.9912 105.613 26.2427 106.268 26.7457C106.924 27.2487 107.252 28.0033 107.252 29.0093V31.8702C107.252 32.2789 107.445 32.4833 107.832 32.4833ZM103.077 32.4361C103.453 32.4361 103.792 32.3366 104.093 32.1375C104.393 31.9279 104.544 31.6554 104.544 31.3201V30.6441L103.238 30.9428C102.894 31.0266 102.647 31.1314 102.497 31.2572C102.357 31.3725 102.287 31.5401 102.287 31.7602C102.287 31.9803 102.357 32.148 102.497 32.2632C102.637 32.3785 102.83 32.4361 103.077 32.4361Z" fill="#1976D2"/>
<path d="M114.699 25.9912C115.548 25.9912 116.225 26.2322 116.73 26.7143C117.235 27.1963 117.487 27.8828 117.487 28.7735V34.0081H114.747V29.5123C114.747 28.9779 114.645 28.6006 114.441 28.3805C114.247 28.15 113.968 28.0347 113.603 28.0347C113.173 28.0347 112.824 28.1867 112.555 28.4906C112.287 28.784 112.152 29.2399 112.152 29.8582V34.0081H109.412V26.1484H111.862L111.943 27.6574C112.201 27.102 112.566 26.6881 113.039 26.4156C113.511 26.1327 114.065 25.9912 114.699 25.9912Z" fill="#1976D2"/>
<path d="M124.299 34.0081C123.998 34.8465 123.671 35.5119 123.316 36.0045C122.962 36.497 122.542 36.8481 122.059 37.0577C121.575 37.2777 120.99 37.3878 120.302 37.3878C119.389 37.3878 118.658 37.1939 118.11 36.8061L118.69 35.0141C118.862 35.1713 119.05 35.2761 119.255 35.3285C119.469 35.3914 119.743 35.4228 120.077 35.4228C120.41 35.4228 120.673 35.3652 120.866 35.2499C121.06 35.1451 121.215 34.9513 121.334 34.6683L121.527 34.181L120.592 32.0432L118.191 26.1484H121.205L122.446 30.6284L122.833 32.2947L123.268 30.5655L124.509 26.1484H127.249L124.299 34.0081Z" fill="#1976D2"/>
<path d="M136.538 31.9174V34.0081H128.43V23.6333H131.203V31.9174H136.538Z" fill="#1976D2"/>
<path d="M142.551 23.4761C143.625 23.4761 144.549 23.6909 145.323 24.1206C146.107 24.5398 146.709 25.1528 147.128 25.9597C147.547 26.7562 147.757 27.7098 147.757 28.8207C147.757 29.9315 147.547 30.8904 147.128 31.6973C146.709 32.4938 146.107 33.1068 145.323 33.5365C144.549 33.9557 143.625 34.1653 142.551 34.1653C141.476 34.1653 140.547 33.9557 139.762 33.5365C138.978 33.1068 138.376 32.4938 137.957 31.6973C137.538 30.8904 137.329 29.9315 137.329 28.8207C137.329 27.7098 137.538 26.7562 137.957 25.9597C138.376 25.1528 138.978 24.5398 139.762 24.1206C140.547 23.6909 141.476 23.4761 142.551 23.4761ZM142.551 25.5982C141.777 25.5982 141.186 25.8707 140.778 26.4156C140.369 26.9605 140.165 27.7622 140.165 28.8207C140.165 29.8791 140.369 30.6808 140.778 31.2257C141.186 31.7707 141.777 32.0432 142.551 32.0432C143.324 32.0432 143.91 31.7707 144.307 31.2257C144.716 30.6808 144.92 29.8791 144.92 28.8207C144.92 27.7622 144.716 26.9605 144.307 26.4156C143.91 25.8707 143.324 25.5982 142.551 25.5982Z" fill="#1976D2"/>
<path d="M159.205 28.3963V34.0081H157.271L157.19 32.782C156.578 33.7042 155.562 34.1653 154.144 34.1653C153.177 34.1653 152.317 33.9609 151.565 33.5522C150.824 33.133 150.244 32.5252 149.825 31.7288C149.406 30.9218 149.196 29.9577 149.196 28.8364C149.196 27.7256 149.411 26.7719 149.841 25.9755C150.27 25.1685 150.883 24.5502 151.678 24.1206C152.473 23.6909 153.413 23.4761 154.499 23.4761C155.713 23.4761 156.691 23.6857 157.432 24.1049C158.173 24.524 158.759 25.2 159.189 26.1327L156.626 27.123C156.497 26.6095 156.255 26.227 155.901 25.9755C155.546 25.724 155.106 25.5982 154.579 25.5982C153.763 25.5982 153.134 25.8707 152.693 26.4156C152.264 26.9605 152.049 27.7622 152.049 28.8207C152.049 31.0004 152.919 32.0903 154.66 32.0903C155.315 32.0903 155.842 31.9436 156.239 31.6502C156.648 31.3567 156.852 30.9323 156.852 30.3769V30.2197H154.209V28.3963H159.205Z" fill="#1976D2"/>
<path d="M166.082 23.4761C167.156 23.4761 168.08 23.6909 168.854 24.1206C169.638 24.5398 170.24 25.1528 170.659 25.9597C171.078 26.7562 171.288 27.7098 171.288 28.8207C171.288 29.9315 171.078 30.8904 170.659 31.6973C170.24 32.4938 169.638 33.1068 168.854 33.5365C168.08 33.9557 167.156 34.1653 166.082 34.1653C165.007 34.1653 164.078 33.9557 163.293 33.5365C162.509 33.1068 161.907 32.4938 161.488 31.6973C161.069 30.8904 160.86 29.9315 160.86 28.8207C160.86 27.7098 161.069 26.7562 161.488 25.9597C161.907 25.1528 162.509 24.5398 163.293 24.1206C164.078 23.6909 165.007 23.4761 166.082 23.4761ZM166.082 25.5982C165.308 25.5982 164.717 25.8707 164.309 26.4156C163.9 26.9605 163.696 27.7622 163.696 28.8207C163.696 29.8791 163.9 30.6808 164.309 31.2257C164.717 31.7707 165.308 32.0432 166.082 32.0432C166.855 32.0432 167.441 31.7707 167.838 31.2257C168.247 30.6808 168.451 29.8791 168.451 28.8207C168.451 27.7622 168.247 26.9605 167.838 26.4156C167.441 25.8707 166.855 25.5982 166.082 25.5982Z" fill="#1976D2"/>
<path fill-rule="evenodd" clip-rule="evenodd" d="M27.4204 20.536C27.4204 16.3973 24.0973 13.0422 19.998 13.0422V36.5364C19.998 39.3884 21.5163 42.0246 23.983 43.456L28.7157 46.2021C31.2116 47.6503 34.2942 47.6422 36.7824 46.1806L41.4096 43.4628C43.8556 42.0261 45.3579 39.4014 45.3579 36.5647V32.393C45.3579 29.5045 43.8008 26.8404 41.2842 25.4227L36.4456 22.6972C34.1887 21.426 31.4038 21.5567 29.276 23.0339V30.5276L32.7553 28.6542V28.6301L37.9355 31.7045V37.0846L32.7553 40.1202L27.4204 37.2581V20.536Z" fill="#1976D2"/>
<path fill-rule="evenodd" clip-rule="evenodd" d="M22.1719 13.0422C26.2712 13.0422 29.5943 16.3973 29.5943 20.536V23.834L32.6782 22.0993L32.7521 22.3207C34.8406 21.655 37.1459 21.8672 39.1085 22.9727L43.458 25.4227C45.9747 26.8404 47.5317 29.5045 47.5317 32.393V36.5647C47.5317 39.4014 46.0295 42.0261 43.5834 43.4628L38.9562 46.1806C36.468 47.6422 33.3855 47.6503 30.8895 46.2021L26.1569 43.456C23.6901 42.0246 22.1719 39.3884 22.1719 36.5364V13.0422ZM30.783 30.8398L29.5943 31.4882V37.2581L34.9291 40.1202L40.1093 37.0846V31.7045L34.9291 28.6301V28.6542L30.783 30.8398Z" fill="#869DAE" fill-opacity="0.3"/>
</svg>
