<svg width="200" height="140" viewBox="0 0 200 140" fill="none" xmlns="http://www.w3.org/2000/svg">
<path d="M8.07692 78.9233C3.61611 78.9233 0 82.5395 0 87.0003C0 91.4611 3.61611 95.0772 8.07692 95.0772C12.5377 95.0772 16.1538 91.4611 16.1538 87.0003C16.1538 82.5395 12.5377 78.9233 8.07692 78.9233ZM8.07692 89.6926C6.5901 89.6926 5.38462 88.4871 5.38462 87.0003C5.38462 85.5134 6.5901 84.308 8.07692 84.308C9.56375 84.308 10.7692 85.5134 10.7692 87.0003C10.7692 88.4871 9.56375 89.6926 8.07692 89.6926Z" fill="#3082B9"/>
<path d="M176.683 94.2307H121.82C122.468 92.9673 122.836 91.5383 122.836 90.0239V62.0912C122.836 59.9366 122.094 57.9529 120.854 56.378C120.816 56.3267 120.776 56.2754 120.734 56.2255C119.036 54.1576 116.461 52.8364 113.582 52.8364H62.7643C59.8893 52.8364 57.3166 54.1537 55.6181 56.2176C55.5682 56.2754 55.5209 56.3346 55.4762 56.3964C54.2457 57.9686 53.5095 59.9445 53.5095 62.0912V90.0239C53.5095 91.5383 53.8776 92.9673 54.5257 94.2307H50.1441C37.5253 94.2307 27.2595 104.496 27.2595 117.115C27.2595 129.734 37.5253 140 50.1441 140H60.2403C61.6351 140 62.7643 138.869 62.7643 137.476C62.7643 136.082 61.6351 134.952 60.2403 134.952H50.1441C40.3083 134.952 32.3076 126.95 32.3076 117.115C32.3076 107.281 40.3083 99.2787 50.1441 99.2787H176.683C186.518 99.2787 194.519 107.281 194.519 117.115C194.519 126.95 186.518 134.952 176.683 134.952H72.0191C70.6243 134.952 69.4951 136.082 69.4951 137.476C69.4951 138.869 70.6243 140 72.0191 140H176.683C189.301 140 199.567 129.734 199.567 117.115C199.567 104.496 189.301 94.2307 176.683 94.2307ZM113.582 57.8845C114.252 57.8845 114.883 58.0462 115.446 58.3262L111.135 64.6652C109.722 66.741 107.381 67.9807 104.872 67.9807H71.4709C68.9627 67.9807 66.6227 66.7423 65.2108 64.6692L60.895 58.3275C61.4589 58.0475 62.0926 57.8845 62.7643 57.8845H113.582ZM62.7643 94.2307C60.4441 94.2307 58.5576 92.3442 58.5576 90.0239V63.8646L61.0383 67.51C63.3914 70.9661 67.2905 73.0287 71.4709 73.0287H104.872C109.052 73.0287 112.953 70.9648 115.309 67.5048L117.788 63.8594V90.0239C117.788 92.3442 115.902 94.2307 113.582 94.2307H62.7643Z" fill="#3082B9"/>
<path d="M176.347 129.896C176.459 129.899 176.57 129.904 176.683 129.904C183.734 129.904 189.471 124.167 189.471 117.116C189.471 110.064 183.734 104.327 176.683 104.327C176.645 104.327 176.608 104.33 176.571 104.33C176.551 104.33 176.533 104.327 176.514 104.327H51.6586C51.4969 104.327 51.3391 104.344 51.1853 104.373C50.8409 104.346 50.4952 104.327 50.1442 104.327C43.0926 104.327 37.3557 110.064 37.3557 117.116C37.3557 124.054 42.9099 129.715 49.805 129.895C49.8615 129.899 49.9181 129.904 49.9759 129.904H176.178C176.234 129.904 176.291 129.899 176.347 129.896ZM164.145 114.592H62.6815C62.2937 112.66 61.4682 110.887 60.3153 109.375H166.512C165.359 110.887 164.533 112.66 164.145 114.592ZM62.6815 119.64H164.145C164.533 121.571 165.359 123.344 166.512 124.856H60.3153C61.4682 123.344 62.2937 121.571 62.6815 119.64ZM184.423 117.116C184.423 121.384 180.951 124.856 176.683 124.856C172.414 124.856 168.942 121.384 168.942 117.116C168.942 112.847 172.414 109.375 176.683 109.375C180.951 109.375 184.423 112.847 184.423 117.116ZM42.4038 117.116C42.4038 112.847 45.8757 109.375 50.1442 109.375C54.4127 109.375 57.8846 112.847 57.8846 117.116C57.8846 121.384 54.4127 124.856 50.1442 124.856C45.8757 124.856 42.4038 121.384 42.4038 117.116Z" fill="#3082B9"/>
<path d="M65.9615 89.1828H72.0192C73.414 89.1828 74.5433 88.0523 74.5433 86.6588C74.5433 85.2653 73.414 84.1348 72.0192 84.1348H65.9615C64.5667 84.1348 63.4375 85.2653 63.4375 86.6588C63.4375 88.0523 64.5667 89.1828 65.9615 89.1828Z" fill="#3082B9"/>
<path d="M45.2645 15.1442H125.529C126.924 15.1442 128.053 14.0137 128.053 12.6202C128.053 11.2267 126.924 10.0962 125.529 10.0962H45.2645C43.8723 10.0962 42.7405 8.96428 42.7405 7.57212C42.7405 6.17995 43.8723 5.04808 45.2645 5.04808H181.563C182.955 5.04808 184.087 6.17995 184.087 7.57212C184.087 8.96428 182.955 10.0962 181.563 10.0962H137.308C135.913 10.0962 134.784 11.2267 134.784 12.6202C134.784 14.0137 135.913 15.1442 137.308 15.1442H151.106V15.9856C151.106 17.9562 152.47 19.6113 154.303 20.0648V32.6442H151.274C148.027 32.6442 145.385 35.2866 145.385 38.5337V42.7404H138.822C133.719 42.7404 129.567 46.8919 129.567 51.9952V71.1779C129.567 75.3531 132.964 78.75 137.139 78.75C141.315 78.75 144.712 75.3531 144.712 71.1779V57.8846H168.942V71.1779C168.942 75.3531 172.339 78.75 176.514 78.75C180.69 78.75 184.087 75.3531 184.087 71.1779V51.9952C184.087 46.8919 179.935 42.7404 174.832 42.7404H168.269V38.5337C168.269 35.2866 165.627 32.6442 162.38 32.6442H159.351V20.0648C161.184 19.6113 162.548 17.9562 162.548 15.9856V15.1442H181.563C185.738 15.1442 189.135 11.7473 189.135 7.57212C189.135 3.39694 185.738 0 181.563 0H45.2645C41.0893 0 37.6924 3.39694 37.6924 7.57212C37.6924 11.7473 41.0893 15.1442 45.2645 15.1442ZM179.039 51.9952V71.1779C179.039 72.5701 177.907 73.7019 176.514 73.7019C175.122 73.7019 173.99 72.5701 173.99 71.1779V56.0337C173.99 54.2708 172.556 52.8365 170.793 52.8365H142.861C141.098 52.8365 139.664 54.2708 139.664 56.0337V71.1779C139.664 72.5701 138.532 73.7019 137.139 73.7019C135.747 73.7019 134.615 72.5701 134.615 71.1779V51.9952C134.615 49.6749 136.502 47.7885 138.822 47.7885H174.832C177.152 47.7885 179.039 49.6749 179.039 51.9952ZM163.221 38.5337V42.7404H150.433V38.5337C150.433 38.0696 150.81 37.6923 151.274 37.6923H162.38C162.844 37.6923 163.221 38.0696 163.221 38.5337Z" fill="#3082B9"/>
<path d="M104.102 89.1828H110.16C111.555 89.1828 112.684 88.0523 112.684 86.6588C112.684 85.2653 111.555 84.1348 110.16 84.1348H104.102C102.709 84.1348 101.578 85.2653 101.578 86.6588C101.578 88.0523 102.709 89.1828 104.102 89.1828Z" fill="#3082B9"/>
<path d="M173.317 117.115C173.317 118.972 174.827 120.481 176.683 120.481C178.539 120.481 180.048 118.972 180.048 117.115C180.048 115.259 178.539 113.75 176.683 113.75C174.827 113.75 173.317 115.259 173.317 117.115Z" fill="#3082B9"/>
<path d="M53.5096 117.115C53.5096 115.259 52.0004 113.75 50.1442 113.75C48.288 113.75 46.7788 115.259 46.7788 117.115C46.7788 118.972 48.288 120.481 50.1442 120.481C52.0004 120.481 53.5096 118.972 53.5096 117.115Z" fill="#3082B9"/>
</svg>
