<svg width="148" height="140" viewBox="0 0 148 140" fill="none" xmlns="http://www.w3.org/2000/svg">
<path d="M146.873 78.4484C145.786 70.9201 139.872 65.006 132.344 63.9194V59.4638C132.344 47.1705 122.999 37.1614 111.512 37.1614C100.356 37.1614 91.0159 46.8666 90.6801 58.7972H90.8223L90.6801 58.8217V107.12C90.6801 122.56 79.1368 135.098 64.9466 135.098C50.7564 135.098 39.213 122.543 39.213 107.12V102.936C42.7667 102.936 46.5655 100.361 46.5655 93.1331V86.9693C62.2948 82.9475 73.5244 69.4411 73.5244 54.1284V49.0184H68.6228L68.5199 17.1211C68.4843 11.2167 64.2475 6.17542 58.4372 5.12433C57.1839 1.28482 53.0552 -0.811848 49.2154 0.441744C45.3759 1.69503 43.2792 5.82373 44.5328 9.66355C45.7861 13.5031 49.9148 15.5997 53.7546 14.3461C55.8106 13.6749 57.4639 12.1281 58.2706 10.1215C61.4104 11.0149 63.5855 13.8713 63.6109 17.1358L63.7212 49.0184H58.8195V54.1994C58.6241 62.7243 52.9088 70.1325 44.7127 72.485C40.3272 73.8764 35.6186 73.8764 31.2332 72.485C23.0465 70.1245 17.3441 62.7176 17.1557 54.1994V49.0184H9.80326V17.1578C9.81735 13.8452 12.0451 10.9508 15.2441 10.0897C16.7357 13.8869 21.0231 15.7557 24.8203 14.264C28.6175 12.7724 30.4863 8.4847 28.9947 4.68778C27.503 0.890856 23.2153 -0.978197 19.4184 0.51343C17.361 1.32189 15.7734 3.00897 15.0921 5.11208C9.21843 6.11569 4.91787 11.199 4.90163 17.1578V49.0184H0V54.1161C0 69.446 11.237 82.9573 26.959 86.9693V93.1331C26.959 100.361 30.7577 102.936 34.3114 102.936V107.12C34.3114 125.256 48.0531 140 64.9466 140C81.84 140 95.5818 125.239 95.5818 107.12V58.9393C95.8268 49.6385 102.978 42.0704 111.512 42.0704C120.296 42.0704 127.442 49.8737 127.442 59.4711V63.9194C118.065 65.2728 111.56 73.9723 112.913 83.35C114.267 92.7278 122.966 99.2325 132.344 97.8791C141.722 96.5256 148.226 87.8258 146.873 78.4484ZM51.4671 9.80539C50.1136 9.80539 49.0163 8.70803 49.0163 7.35457C49.0163 6.00111 50.1136 4.90376 51.4671 4.90376C52.8206 4.90376 53.9179 6.00111 53.9179 7.35457C53.9179 8.70803 52.8206 9.80539 51.4671 9.80539ZM22.0573 4.90376C23.4108 4.90376 24.5081 6.00111 24.5081 7.35457C24.5081 8.70803 23.4108 9.80539 22.0573 9.80539C20.7039 9.80539 19.6065 8.70803 19.6065 7.35457C19.6065 6.00111 20.7039 4.90376 22.0573 4.90376ZM4.90163 54.1161V53.92H12.2541V54.1994C12.4379 64.8516 19.5247 74.1478 29.748 77.1464C35.1052 78.8427 40.8554 78.8427 46.2126 77.1464C56.4407 74.1518 63.534 64.8553 63.7212 54.1994V53.92H68.6228V54.1161C68.6228 67.75 58.1137 79.7467 43.6245 82.6485C40.2222 83.3298 36.7371 83.5008 33.2845 83.1558C32.1479 83.0455 31.0181 82.8746 29.8999 82.6436C15.4107 79.7467 4.90163 67.75 4.90163 54.1161ZM34.3114 98.0347C32.1057 98.0347 31.8606 94.6036 31.8606 93.1331V87.9324C32.0567 87.957 32.2576 87.9668 32.4561 87.9864C32.7012 88.0133 32.9463 88.0329 33.1914 88.055C34.3506 88.1579 35.5197 88.2265 36.6985 88.229H36.821C37.9974 88.229 39.164 88.1579 40.3159 88.055C40.561 88.0329 40.8208 88.0133 41.0732 87.9864C41.2668 87.9643 41.4678 87.957 41.6614 87.9324V93.1331C41.6614 94.6036 41.4163 98.0347 39.2106 98.0347H34.3114ZM129.893 93.1331C123.126 93.1331 117.639 87.6466 117.639 80.879C117.639 74.1114 123.126 68.6249 129.893 68.6249C136.661 68.6249 142.147 74.1114 142.147 80.879C142.139 87.6436 136.657 93.1251 129.893 93.1331Z" fill="#3082B9"/>
</svg>
