<svg width="107" height="140" viewBox="0 0 107 140" fill="none" xmlns="http://www.w3.org/2000/svg">
<path d="M39.7635 31.231C34.453 31.231 30.1479 35.4852 30.1479 40.733C30.1479 45.9808 34.453 50.235 39.7635 50.235C45.0739 50.235 49.379 45.9808 49.379 40.733C49.379 35.4852 45.0739 31.231 39.7635 31.231ZM39.7635 45.484C37.1081 45.484 34.9557 43.357 34.9557 40.733C34.9689 38.1185 37.1177 36.0057 39.7635 36.0057V35.982C42.4188 35.982 44.5712 38.109 44.5712 40.733C44.5712 43.357 42.4188 45.484 39.7635 45.484Z" fill="#3082B9"/>
<path d="M67.264 31.231C61.9535 31.231 57.6484 35.4852 57.6484 40.733C57.6484 45.9808 61.9535 50.235 67.264 50.235C72.5744 50.235 76.8795 45.9808 76.8795 40.733C76.8795 35.4852 72.5744 31.231 67.264 31.231ZM67.264 45.484C64.6086 45.484 62.4562 43.357 62.4562 40.733C62.4694 38.1185 64.6182 36.0057 67.264 36.0057V35.982C69.9193 35.982 72.0717 38.109 72.0717 40.733C72.0717 43.357 69.9193 45.484 67.264 45.484Z" fill="#3082B9"/>
<path d="M96.5771 42.1671C95.5398 36.5274 90.9454 32.1891 85.1971 31.4212C83.6106 25.6249 79.0432 20.6839 69.8604 20.6839H55.9179V15.4578C60.1349 14.1459 62.4772 9.70397 61.1493 5.53703C59.8218 1.36979 55.3268 -0.944848 51.1101 0.367325C46.8931 1.6792 44.5508 6.12111 45.8787 10.2881C46.6639 12.7521 48.6167 14.6822 51.1101 15.4578V20.5651H37.1917C30.7012 20.5651 23.8742 23.5107 21.8069 31.3024C14.4807 32.2963 9.35687 38.9709 10.3626 46.2105C11.1511 51.8871 15.5475 56.4169 21.254 57.433L21.2299 57.5518C21.9511 67.9803 29.7877 71.8049 37.1676 71.8049H69.8604C80.8461 71.8049 85.2452 64.6784 85.7981 57.5518C93.0734 56.2447 97.8995 49.3569 96.5771 42.1671ZM21.1575 52.8008C16.6172 51.5038 14.0003 46.8151 15.3125 42.3284C16.1283 39.5392 18.3351 37.3585 21.1575 36.5523V52.8008ZM50.3166 8.04616C50.3166 6.30135 51.7481 4.88673 53.5137 4.88673C55.2794 4.88673 56.7109 6.30135 56.7109 8.04616C56.7109 9.79098 55.2794 11.2056 53.5137 11.2056C51.7481 11.2056 50.3166 9.79098 50.3166 8.04616ZM81.0622 55.8414C81.0622 59.9748 79.5958 66.9113 69.8601 66.9113H37.1914C33.0086 66.9113 25.9893 65.4623 25.9893 55.8414L25.9653 36.5523C25.9653 26.9077 32.9846 25.4824 37.1673 25.4824H69.8601C79.6198 25.4824 81.0622 32.4189 81.0622 36.5523V55.8414ZM85.7738 52.6345V36.386C89.4385 37.4312 91.965 40.7412 91.9758 44.5103C91.965 48.2793 89.4385 51.5893 85.7738 52.6345Z" fill="#3082B9"/>
<path d="M67.2639 56.6968H39.7635C38.436 56.6968 37.3596 57.7604 37.3596 59.0723C37.3596 60.3842 38.436 61.4478 39.7635 61.4478H67.2639C68.5914 61.4478 69.6677 60.3842 69.6677 59.0723C69.6677 57.7604 68.5914 56.6968 67.2639 56.6968Z" fill="#3082B9"/>
<path d="M107 76.2472C106.954 71.1571 102.741 67.0674 97.5903 67.1128C93.2802 67.1508 89.5578 70.1021 88.5863 74.2518L82.1679 75.4871H24.8595L18.4411 74.2518C17.3413 69.2787 12.3704 66.1281 7.3379 67.2149C2.30538 68.3017 -0.882761 73.214 0.217013 78.1871C0.964619 81.5675 3.56471 84.2494 6.95058 85.1319V102.877C2.88412 103.949 0.0478398 107.579 0.0274069 111.738V115.942C0.0274069 117.254 1.10374 118.318 2.43128 118.318C3.75883 118.318 4.83516 117.254 4.83516 115.942V111.714C4.83516 109.248 6.85863 107.248 9.35445 107.248C11.8503 107.248 13.8737 109.248 13.8737 111.714V115.942C13.8737 117.254 14.9501 118.318 16.2776 118.318C17.6052 118.318 18.6815 117.254 18.6815 115.942V111.714C18.6611 107.555 15.8248 103.925 11.7583 102.853V85.1082C14.8122 84.2952 17.2389 82.0043 18.2007 79.0269L22.2152 79.8108V109.125C22.22 113.422 23.1371 117.671 24.9075 121.596V121.81C32.0047 137.357 50.5119 144.274 66.244 137.261C73.187 134.165 78.7472 128.671 81.8795 121.81L81.9997 121.549C83.7891 117.643 84.7308 113.411 84.7641 109.125V79.8108L88.7786 79.0269C89.7405 82.0043 92.1672 84.2952 95.221 85.1082V102.853C91.1545 103.925 88.3183 107.555 88.2978 111.714V115.942C88.2978 117.254 89.3742 118.318 90.7017 118.318C92.0293 118.318 93.1056 117.254 93.1056 115.942V111.714C93.108 109.248 95.1333 107.25 97.6291 107.252C100.122 107.254 102.142 109.251 102.144 111.714V115.942C102.144 117.254 103.221 118.318 104.548 118.318C105.876 118.318 106.952 117.254 106.952 115.942V111.714C106.931 107.555 104.095 103.925 100.029 102.853V85.1082C104.114 84.054 106.974 80.4195 107 76.2472ZM9.35445 80.7132C6.85863 80.7132 4.83516 78.7136 4.83516 76.2472C4.83516 73.7809 6.85863 71.7813 9.35445 71.7813C11.8503 71.7813 13.8737 73.7809 13.8737 76.2472C13.8737 78.7136 11.8503 80.7132 9.35445 80.7132ZM53.5137 135.279C44.4574 135.278 36.0309 130.698 31.1817 123.14H75.8457C70.9965 130.698 62.57 135.278 53.5137 135.279ZM79.9564 109.148C79.9446 112.316 79.35 115.455 78.2015 118.413H28.7778C27.6293 115.455 27.0347 112.316 27.023 109.148V80.2381H79.9564V109.148ZM97.6979 80.7126C97.6895 80.7126 97.6814 80.7129 97.673 80.7129L97.6249 80.6416C95.1291 80.6416 93.1056 78.642 93.1056 76.1757C93.1056 73.7093 95.1291 71.7097 97.6249 71.7097C100.121 71.7097 102.144 73.7093 102.144 76.1757C102.184 78.642 100.193 80.6731 97.6979 80.7126Z" fill="#3082B9"/>
<path d="M62.0178 97.0034C61.5775 96.6108 61.006 96.3929 60.4129 96.3914H53.2012L62.0475 87.412C62.8979 86.4044 62.7612 84.9067 61.7416 84.066C60.8299 83.3145 59.4997 83.3332 58.61 84.11L45.7973 97.1278C44.8679 98.0646 44.8832 99.5686 45.8312 100.487C46.2841 100.926 46.8941 101.17 47.5281 101.166H54.932L45.8213 111.191C44.9343 112.162 45.0094 113.66 45.9896 114.54C46.9728 115.417 48.4884 115.343 49.3791 114.374L62.1917 100.358C63.0812 99.3845 63.0033 97.8823 62.0178 97.0034Z" fill="#3082B9"/>
</svg>
